<?xml version="1.0" encoding="utf-8"?>
<svg viewBox="137.2793 146 208.1547 207.9998" width="208.1547" height="207.9998" xmlns="http://www.w3.org/2000/svg">
  <path d="M 241.434 146 C 161.375 146 111.338 232.667 151.368 302 C 191.397 371.333 291.471 371.333 331.501 302 C 340.629 286.19 345.434 268.256 345.434 250 C 345.374 192.588 298.847 146.061 241.434 146 Z M 241.434 338 C 173.692 338 131.353 264.667 165.224 206 C 199.095 147.333 283.773 147.333 317.645 206 C 325.368 219.378 329.434 234.553 329.434 250 C 329.379 298.578 290.013 337.945 241.434 338 Z M 281.434 270 C 281.434 285.464 268.898 298 253.434 298 L 249.434 298 L 249.434 306 C 249.434 312.158 242.768 316.007 237.434 312.928 C 234.959 311.499 233.434 308.858 233.434 306 L 233.434 298 L 217.434 298 C 211.276 298 207.427 291.333 210.506 286 C 211.935 283.525 214.576 282 217.434 282 L 253.434 282 C 262.672 282 268.445 272 263.827 264 C 261.683 260.287 257.722 258 253.434 258 L 229.434 258 C 207.88 258 194.408 234.667 205.186 216 C 210.187 207.337 219.431 202 229.434 202 L 233.434 202 L 233.434 194 C 233.434 187.842 240.101 183.993 245.434 187.072 C 247.91 188.501 249.434 191.142 249.434 194 L 249.434 202 L 265.434 202 C 271.593 202 275.442 208.667 272.363 214 C 270.934 216.475 268.293 218 265.434 218 L 229.434 218 C 220.197 218 214.423 228 219.042 236 C 221.186 239.713 225.147 242 229.434 242 L 253.434 242 C 268.898 242 281.434 254.536 281.434 270 Z" style="fill: rgb(53, 163, 253);" transform="matrix(1, 0, 0, 1, 3.552713678800501e-15, 3.552713678800501e-15)"/>
</svg>